<?xml version="1.0" standalone="no"?>
<!DOCTYPE svg PUBLIC "-//W3C//DTD SVG 20010904//EN"
 "http://www.w3.org/TR/2001/REC-SVG-20010904/DTD/svg10.dtd">
<svg version="1.0" xmlns="http://www.w3.org/2000/svg"
 width="512.000000pt" height="512.000000pt" viewBox="0 0 512.000000 512.000000"
 preserveAspectRatio="xMidYMid meet">
<metadata>
Created by potrace 1.14, written by Peter Selinger 2001-2017
</metadata>
<g transform="translate(0.000000,512.000000) scale(0.100000,-0.100000)"
fill="#000000" stroke="none">
<path d="M702 5103 c2 -10 17 -24 33 -32 17 -8 37 -22 46 -33 9 -10 26 -18 37
-18 15 0 24 -8 28 -25 3 -14 10 -25 15 -25 5 0 9 -11 9 -25 0 -14 -5 -25 -11
-25 -8 0 -8 -5 1 -15 10 -13 9 -15 -10 -15 -22 0 -22 -1 5 -21 19 -16 26 -28
22 -45 -3 -18 4 -29 36 -51 48 -33 61 -61 39 -86 -12 -14 -17 -15 -25 -5 -6
10 -8 9 -4 -2 2 -9 23 -19 51 -24 40 -7 52 -15 68 -42 13 -21 28 -34 41 -34
20 0 20 1 3 13 -17 12 -17 14 -2 20 9 4 16 15 16 26 0 22 15 29 50 25 14 -1
31 -3 38 -3 8 -1 6 -9 -8 -23 -11 -12 -19 -31 -18 -42 2 -14 -6 -25 -24 -34
-16 -7 -28 -17 -28 -23 0 -9 41 -14 89 -11 13 1 36 -8 50 -19 14 -11 27 -16
29 -10 3 9 53 7 110 -5 26 -5 30 -34 5 -35 -12 0 -13 -2 -5 -6 7 -3 21 2 31
11 10 9 39 19 64 22 30 4 47 12 47 20 0 10 11 13 40 10 22 -2 43 0 46 5 3 5
12 9 20 9 8 0 13 -4 10 -9 -3 -4 6 -13 19 -19 14 -7 25 -19 25 -28 0 -10 6
-25 14 -33 20 -22 31 -71 17 -71 -6 0 -11 4 -11 9 0 5 -11 4 -25 -2 -29 -14
-30 -18 -10 -57 13 -24 22 -30 49 -30 21 0 36 -6 40 -15 3 -9 22 -23 41 -31
19 -8 35 -18 35 -23 0 -5 15 -12 33 -15 23 -4 38 -15 45 -31 6 -14 7 -25 3
-25 -5 0 -16 -14 -25 -30 -14 -29 -14 -30 10 -36 18 -5 22 -10 14 -19 -5 -6
-7 -15 -3 -18 3 -4 1 -7 -5 -7 -7 0 -11 -12 -11 -27 2 -24 2 -25 6 -5 2 12 11
22 19 22 8 0 13 5 12 12 -2 7 2 12 7 13 6 0 16 4 24 9 8 5 16 4 21 -4 6 -10
17 -10 51 2 37 12 48 12 71 1 15 -8 40 -15 57 -16 23 -2 31 -9 41 -35 8 -24 9
-37 1 -46 -15 -18 -60 -26 -69 -12 -4 6 -34 11 -68 11 -51 0 -60 -3 -61 -18
-1 -10 5 -21 13 -24 23 -9 16 -30 -12 -37 -15 -4 -24 -10 -21 -13 3 -3 20 -1
36 5 36 13 39 5 11 -26 l-20 -22 53 4 c30 2 64 9 76 15 29 16 62 5 54 -16 -4
-11 -3 -14 6 -9 6 4 17 3 24 -2 7 -6 14 -10 17 -10 12 2 50 -14 50 -21 0 -4
-6 -13 -12 -19 -10 -10 -10 -17 0 -33 10 -16 10 -22 -3 -35 -20 -20 -19 -25 3
-17 9 3 14 3 10 -2 -13 -13 25 -35 39 -23 9 8 13 7 13 -3 0 -8 8 -4 19 10 15
20 24 23 54 17 20 -4 42 -12 49 -19 19 -19 56 -18 70 2 16 22 45 33 53 21 4
-6 23 -10 43 -10 31 -1 42 -7 65 -37 15 -21 25 -44 22 -53 -19 -59 0 -129 27
-102 22 22 35 12 36 -27 1 -30 -2 -40 -17 -44 -11 -3 -22 -19 -27 -42 -8 -33
-14 -38 -37 -39 -16 -1 -31 2 -33 6 -3 4 -16 1 -29 -8 -13 -9 -29 -13 -35 -9
-23 14 -78 -16 -98 -53 -13 -25 -25 -36 -37 -34 -9 2 -14 -1 -11 -7 4 -5 1
-13 -5 -16 -5 -4 -9 -21 -8 -39 3 -48 0 -66 -11 -66 -7 0 -7 6 0 19 15 29 13
31 -26 29 -35 -1 -35 -2 -12 -14 12 -7 17 -13 11 -14 -7 0 -13 -5 -13 -11 0
-5 4 -8 9 -5 5 3 11 -4 14 -15 4 -15 11 -19 26 -14 15 4 20 1 23 -17 2 -13 9
-22 17 -20 12 3 12 0 0 -14 -12 -16 -12 -17 4 -11 25 9 87 -23 87 -45 0 -26
13 -22 41 10 30 36 61 49 57 24 -2 -11 3 -16 14 -14 11 2 23 -9 33 -28 16 -30
19 -32 64 -34 36 -2 50 -30 26 -56 -11 -12 -20 -27 -21 -33 0 -7 -2 -20 -2
-29 -1 -12 -10 -18 -26 -18 -29 0 -44 -18 -22 -26 9 -3 16 -14 16 -23 0 -32
27 -56 62 -56 22 0 32 -4 30 -13 -2 -14 25 -59 33 -54 15 7 34 0 29 -12 -4
-12 2 -13 32 -6 21 5 40 7 43 4 2 -2 -2 -4 -9 -4 -9 0 -8 -6 5 -20 10 -11 25
-20 33 -20 12 0 12 3 -4 15 -10 8 -14 15 -7 15 12 0 26 -17 29 -35 1 -5 9 -23
18 -40 16 -30 16 -30 17 -5 0 15 3 19 6 11 3 -8 17 -25 31 -38 14 -13 21 -23
17 -23 -5 0 2 -11 15 -25 14 -15 30 -23 41 -20 18 6 89 -53 89 -74 0 -6 4 -11
8 -11 12 0 14 -71 2 -85 -5 -6 -5 -16 0 -25 8 -12 13 -13 30 -2 11 7 19 9 18
5 -4 -18 25 -61 38 -56 17 6 47 -24 63 -64 7 -18 22 -35 33 -39 13 -4 18 -13
16 -27 -3 -23 30 -62 61 -72 9 -2 22 -18 29 -35 10 -21 21 -30 38 -30 13 0 24
-4 24 -10 0 -5 4 -10 10 -10 10 0 8 23 -5 53 -11 26 2 33 23 14 14 -13 21 -14
30 -5 10 10 18 6 37 -15 25 -26 70 -45 82 -34 6 7 33 -17 33 -30 0 -5 12 -9
26 -8 30 0 45 -34 16 -36 -10 0 -12 -3 -5 -5 7 -3 9 -13 6 -21 -5 -13 -2 -15
11 -10 14 5 17 3 12 -8 -3 -8 -1 -15 5 -15 7 0 9 -14 5 -37 -4 -21 -8 -56 -11
-77 -4 -36 -3 -38 10 -20 14 18 14 18 15 -4 0 -13 7 -30 15 -38 12 -13 15 -12
25 7 9 16 15 18 23 10 9 -9 9 -14 -1 -20 -9 -5 2 -12 33 -21 30 -9 51 -21 61
-39 22 -37 52 -39 47 -3 -3 22 -2 23 5 8 8 -18 9 -18 15 -2 5 13 11 15 27 6
20 -11 20 -11 0 -48 l-20 -37 27 -22 c27 -22 27 -23 8 -37 -19 -13 -19 -15 -3
-21 10 -4 15 -11 13 -16 -3 -5 6 -11 20 -15 14 -3 25 -13 25 -21 0 -8 -4 -12
-9 -9 -4 3 -16 -3 -26 -14 -16 -18 -16 -19 4 -32 17 -10 21 -23 21 -65 0 -38
-4 -53 -14 -53 -7 0 -25 -11 -40 -25 -15 -14 -22 -25 -17 -25 6 0 7 -7 4 -17
-4 -10 -2 -14 4 -10 27 17 60 -32 53 -77 -2 -9 19 -26 33 -26 4 0 7 9 7 19 0
26 10 31 38 20 33 -13 61 -95 41 -124 -10 -15 -4 -58 9 -63 14 -4 16 -32 2
-32 -5 0 -7 -7 -3 -16 4 -12 2 -15 -8 -12 -26 9 -38 -17 -33 -74 4 -53 3 -56
-21 -62 -15 -4 -25 -12 -22 -19 4 -12 -16 -37 -30 -37 -14 0 -63 -61 -63 -79
0 -14 -2 -14 -10 -1 -8 12 -10 11 -10 -6 0 -17 6 -20 39 -20 27 1 37 -3 34
-11 -3 -8 2 -13 12 -13 15 0 16 -2 4 -17 -12 -15 -12 -16 6 -11 11 3 26 -1 33
-8 18 -20 14 -26 -8 -12 -28 18 -39 0 -12 -21 18 -13 23 -25 20 -47 l-4 -29
-12 35 c-11 33 -11 33 -9 6 2 -22 -3 -30 -18 -32 -11 -2 -25 3 -30 10 -9 12
-15 11 -35 -5 -14 -10 -19 -19 -12 -19 15 0 16 -40 1 -40 -14 0 -33 -20 -42
-43 -6 -17 -5 -17 15 -2 13 8 33 15 45 15 25 0 31 15 11 23 -7 3 -1 6 14 6 16
1 29 8 32 19 3 9 4 5 2 -10 -4 -33 -3 -33 20 -11 16 16 16 16 10 -5 -6 -16 -3
-22 8 -22 9 0 16 -4 16 -10 0 -5 -7 -10 -16 -10 -8 0 -13 -4 -9 -9 7 -12 43
-8 73 8 21 11 33 -1 12 -14 -16 -10 -2 -25 23 -25 20 0 20 0 1 15 -13 10 -14
14 -5 15 11 0 11 3 1 16 -11 12 -11 18 1 29 12 13 18 12 44 -5 23 -15 26 -20
11 -20 -16 0 -17 -2 -5 -16 11 -14 10 -19 -8 -34 -16 -13 -19 -20 -10 -29 8
-8 7 -11 -6 -11 -9 0 -17 4 -17 9 0 9 -74 51 -88 51 -4 0 2 -7 13 -16 11 -8
20 -20 20 -27 0 -7 10 -13 23 -15 12 -2 20 -7 17 -11 -6 -11 -55 -1 -55 11 0
5 -5 6 -10 3 -16 -10 -3 -23 30 -30 21 -5 30 -13 32 -28 0 -12 2 -26 3 -32 2
-5 3 -16 4 -22 1 -10 82 -13 371 -13 l370 0 0 2560 0 2560 -2211 0 c-2096 0
-2210 -1 -2207 -17z m372 -468 c-7 -16 -24 -21 -24 -6 0 8 7 13 27 20 1 1 0
-6 -3 -14z m1716 -1865 c0 -5 -5 -10 -11 -10 -5 0 -7 5 -4 10 3 6 8 10 11 10
2 0 4 -4 4 -10z m16 -38 c-8 -9 -18 -13 -22 -10 -8 9 19 37 29 31 5 -3 2 -12
-7 -21z m114 -32 c0 -5 -5 -10 -11 -10 -5 0 -7 5 -4 10 3 6 8 10 11 10 2 0 4
-4 4 -10z m-11 -59 c-6 -2 -18 4 -27 13 -15 15 -15 15 10 4 15 -7 23 -15 17
-17z m701 -651 c0 -5 -2 -10 -4 -10 -3 0 -8 5 -11 10 -3 6 -1 10 4 10 6 0 11
-4 11 -10z m0 -60 c0 -5 -5 -10 -11 -10 -5 0 -7 5 -4 10 3 6 8 10 11 10 2 0 4
-4 4 -10z m500 -405 c0 -5 -5 -3 -10 5 -5 8 -10 20 -10 25 0 6 5 3 10 -5 5 -8
10 -19 10 -25z m153 -500 c-3 -9 -8 -14 -10 -11 -3 3 -2 9 2 15 9 16 15 13 8
-4z m157 -470 c10 -12 10 -15 -4 -15 -9 0 -16 7 -16 15 0 8 2 15 4 15 2 0 9
-7 16 -15z m20 -46 c0 -11 -3 -11 -24 -3 -23 9 -20 23 4 17 11 -3 20 -9 20
-14z m239 -171 c-3 -26 1 -38 15 -38 8 0 17 -6 19 -12 4 -9 6 -10 6 -1 1 6 -6
19 -15 27 -8 9 -11 16 -5 16 5 0 16 -6 23 -13 7 -7 25 -12 39 -11 23 2 28 -3
40 -39 7 -23 18 -45 24 -49 5 -5 1 -8 -10 -8 -17 0 -17 -2 -5 -10 13 -9 13
-10 0 -11 -10 0 -8 -3 5 -9 11 -5 14 -9 8 -9 -7 -1 -16 0 -19 2 -3 1 -10 -6
-15 -16 -6 -9 -16 -14 -22 -11 -8 5 -8 3 1 -7 19 -20 14 -31 -8 -17 -11 7 -18
19 -15 25 2 7 -2 13 -9 13 -8 0 -17 -8 -21 -17 -6 -16 -8 -16 -25 5 -20 25
-35 29 -27 8 3 -8 -1 -17 -9 -20 -8 -3 -14 1 -14 9 0 8 -7 15 -16 15 -8 0 -12
5 -9 10 3 6 -5 10 -19 10 -14 0 -29 -7 -34 -16 -5 -8 -25 -17 -46 -19 -46 -4
-53 -10 -36 -30 10 -12 11 -18 1 -28 -10 -9 -11 -8 -5 6 6 16 3 17 -22 12 -23
-5 -26 -4 -14 5 11 9 12 13 2 17 -18 7 -4 23 20 23 20 0 20 1 5 18 -12 13 -13
22 -6 32 8 11 12 12 16 3 7 -18 33 -16 33 1 0 22 19 29 37 14 14 -11 15 -10 9
12 -6 21 -5 22 4 8 6 -10 21 -18 32 -18 17 0 19 3 10 12 -17 17 -15 39 3 32 9
-4 15 0 15 10 0 9 5 16 10 16 6 0 10 5 10 12 0 6 8 19 18 29 21 22 23 22 21 7z
m-268 -39 c26 -13 15 -29 -19 -28 -15 0 -21 3 -14 6 10 4 10 8 1 19 -14 17 3
19 32 3z m-181 -19 c0 -5 -7 -10 -15 -10 -8 0 -15 5 -15 10 0 6 7 10 15 10 8
0 15 -4 15 -10z m130 -10 c0 -5 -9 -10 -20 -10 -11 0 -20 5 -20 10 0 6 9 10
20 10 11 0 20 -4 20 -10z m-32 -55 c-3 -3 -9 2 -12 12 -6 14 -5 15 5 6 7 -7
10 -15 7 -18z m479 -87 c-3 -8 -6 -5 -6 6 -1 11 2 17 5 13 3 -3 4 -12 1 -19z
m-287 -8 c0 -5 -4 -10 -10 -10 -5 0 -10 5 -10 10 0 6 5 10 10 10 6 0 10 -4 10
-10z m167 -6 c-3 -3 -12 -4 -19 -1 -8 3 -5 6 6 6 11 1 17 -2 13 -5z m40 0 c-3
-3 -12 -4 -19 -1 -8 3 -5 6 6 6 11 1 17 -2 13 -5z m-277 -54 c0 -5 -4 -10 -10
-10 -5 0 -10 5 -10 10 0 6 5 10 10 10 6 0 10 -4 10 -10z"/>
<path d="M4526 182 c-2 -4 -1 -13 3 -20 4 -8 11 -5 19 8 10 16 10 20 -2 20 -8
0 -17 -4 -20 -8z"/>
<path d="M4728 183 c7 -3 16 -2 19 1 4 3 -2 6 -13 5 -11 0 -14 -3 -6 -6z"/>
<path d="M1978 4023 c7 -3 16 -2 19 1 4 3 -2 6 -13 5 -11 0 -14 -3 -6 -6z"/>
<path d="M1968 3998 c8 -9 11 -22 8 -27 -4 -5 -3 -12 2 -15 16 -10 10 33 -6
46 -15 12 -16 11 -4 -4z"/>
<path d="M2050 3979 c0 -5 5 -7 10 -4 6 3 10 8 10 11 0 2 -4 4 -10 4 -5 0 -10
-5 -10 -11z"/>
<path d="M1952 3861 c-8 -5 -12 -16 -10 -25 2 -12 6 -10 15 9 6 14 10 25 10
25 -1 0 -8 -4 -15 -9z"/>
<path d="M2695 3430 c-3 -5 -1 -10 4 -10 6 0 11 5 11 10 0 6 -2 10 -4 10 -3 0
-8 -4 -11 -10z"/>
<path d="M2662 3409 c2 -7 10 -15 17 -17 8 -3 12 1 9 9 -2 7 -10 15 -17 17 -8
3 -12 -1 -9 -9z"/>
<path d="M2445 3060 c3 -5 8 -10 11 -10 2 0 4 5 4 10 0 6 -5 10 -11 10 -5 0
-7 -4 -4 -10z"/>
<path d="M2500 3012 c0 -5 7 -13 16 -16 10 -4 14 -1 12 6 -5 15 -28 23 -28 10z"/>
<path d="M3065 2469 c-4 -6 -5 -12 -2 -15 2 -3 7 2 10 11 7 17 1 20 -8 4z"/>
<path d="M4110 1171 c0 -5 7 -11 14 -14 10 -4 13 -1 9 9 -6 15 -23 19 -23 5z"/>
<path d="M4095 1100 c-3 -5 -1 -10 4 -10 6 0 11 5 11 10 0 6 -2 10 -4 10 -3 0
-8 -4 -11 -10z"/>
<path d="M1386 1002 c-3 -6 -15 -8 -26 -5 -11 3 -20 1 -20 -4 0 -9 -20 -13
-83 -14 -31 0 -37 -3 -33 -16 5 -13 4 -14 -8 -4 -11 10 -17 8 -30 -10 l-15
-22 -6 25 c-5 21 -11 24 -33 20 -43 -8 -52 -24 -31 -51 11 -14 23 -20 31 -15
10 6 9 3 -1 -9 -10 -13 -18 -14 -32 -6 -13 6 -19 6 -19 -1 0 -5 4 -10 10 -10
5 0 7 -7 4 -15 -9 -21 -30 -19 -47 6 -8 11 -18 16 -21 11 -3 -6 1 -12 8 -15
10 -4 15 -20 14 -47 0 -33 -5 -43 -22 -50 -29 -10 -42 13 -22 41 11 16 12 24
3 34 -9 10 -16 9 -35 -3 -18 -11 -20 -17 -10 -23 9 -6 9 -9 1 -9 -6 0 -14 4
-18 10 -3 5 -12 7 -20 3 -10 -3 -15 2 -15 17 0 11 -4 19 -9 16 -10 -7 -2 -54
10 -62 5 -3 9 -10 9 -15 0 -6 -4 -8 -9 -4 -12 7 -41 -22 -41 -41 0 -8 -6 -14
-12 -14 -8 -1 -6 -6 5 -14 15 -12 16 -15 2 -26 -9 -7 -14 -19 -11 -25 3 -8 -4
-10 -17 -8 -20 4 -22 0 -20 -41 0 -29 -3 -44 -9 -40 -6 4 -15 0 -20 -7 -7 -10
-8 -8 -5 9 3 12 1 20 -3 17 -18 -11 -37 7 -32 30 2 14 8 22 13 19 14 -8 11 20
-3 35 -11 11 -10 13 3 8 9 -3 16 0 17 6 0 7 4 22 7 34 6 20 4 22 -21 17 -15
-3 -31 -7 -36 -10 -4 -3 -8 0 -8 5 0 6 6 11 14 11 8 0 16 10 18 23 2 12 8 21
14 20 14 -3 40 44 31 54 -4 3 -21 -9 -38 -28 l-32 -34 7 29 c6 26 5 28 -8 17
-18 -15 -40 -5 -32 14 3 10 -5 13 -32 11 -20 -1 -38 -7 -38 -14 -3 -25 -5 -26
-15 -9 -12 21 -41 23 -33 2 8 -19 0 -19 -29 -1 -15 10 -29 11 -45 5 -22 -8
-23 -10 -6 -26 9 -10 12 -19 6 -21 -5 -1 -8 -11 -5 -21 6 -23 -15 -38 -23 -16
-4 8 -15 20 -26 26 -13 7 -18 7 -14 1 3 -6 1 -14 -5 -18 -8 -5 -10 1 -7 19 3
15 2 24 -2 22 -12 -8 -32 23 -24 36 4 8 3 9 -4 5 -7 -4 -12 -14 -12 -22 0 -8
-7 -14 -15 -14 -21 0 -57 -37 -42 -44 7 -2 2 -5 -10 -5 -13 -1 -22 -4 -22 -8
4 -23 -3 -35 -16 -29 -8 3 -14 2 -12 -2 1 -4 -2 -8 -7 -9 -5 -1 -13 -7 -17
-15 -6 -8 -7 -1 -5 20 2 17 -1 32 -7 32 -6 0 -6 4 0 13 6 6 13 25 16 42 5 27
4 28 -9 10 -8 -10 -14 -15 -14 -10 0 5 -5 4 -12 -3 -18 -18 -33 -15 -18 4 11
12 11 15 -1 12 -8 -2 -19 -10 -26 -18 -7 -8 -13 -10 -13 -5 0 6 -5 3 -10 -5
-6 -9 -10 -11 -10 -3 0 7 -7 10 -16 6 -10 -4 -20 1 -26 11 -9 16 -11 16 -30
-1 -15 -13 -22 -15 -25 -5 -3 6 -9 9 -14 6 -6 -4 -6 -11 1 -19 8 -10 8 -15 -1
-21 -8 -4 -9 -3 -5 4 4 7 2 12 -3 12 -8 0 -11 -121 -11 -385 l0 -385 1101 0
c739 0 1107 3 1120 10 13 7 19 7 19 0 0 -7 120 -10 366 -10 338 0 368 1 380
18 11 14 15 14 23 3 5 -8 11 -9 15 -3 4 7 22 5 53 -4 69 -21 89 -19 89 10 0
15 -5 22 -13 19 -8 -3 -11 2 -8 17 3 15 0 20 -9 17 -17 -7 -46 27 -36 43 4 7
14 10 21 8 8 -3 20 2 28 10 12 12 12 15 0 23 -8 5 -17 9 -21 9 -5 0 -8 9 -8
19 0 10 -7 21 -15 25 -8 3 -15 12 -15 20 0 8 -17 20 -37 27 -42 13 -84 39 -65
39 6 0 12 7 12 15 0 15 10 19 41 16 10 -1 16 5 15 15 0 10 8 18 24 21 31 5 47
20 34 32 -14 14 -86 31 -98 24 -6 -4 0 -10 14 -14 21 -6 19 -7 -15 -9 -22 -1
-45 -2 -51 -1 -5 0 -20 -8 -32 -19 -12 -12 -22 -16 -22 -11 0 5 5 13 10 16 13
8 3 25 -14 25 -12 0 -27 -27 -30 -55 -1 -5 -5 -13 -9 -16 -5 -3 -1 -13 7 -22
18 -18 21 -37 5 -37 -5 0 -8 4 -5 9 3 5 -8 11 -25 15 -45 9 -49 8 -43 -9 4 -8
11 -12 18 -9 6 3 2 -2 -8 -10 -23 -19 -36 -20 -36 -5 0 17 -28 39 -43 34 -16
-7 -19 -34 -5 -52 5 -7 7 -17 3 -23 -3 -5 1 -10 11 -10 13 0 14 -3 4 -15 -7
-8 -9 -15 -6 -15 4 0 2 -9 -4 -20 -6 -11 -20 -20 -31 -20 -11 0 -18 4 -14 9 3
5 1 12 -5 16 -5 3 -12 -6 -16 -20 -6 -24 -8 -25 -22 -11 -15 14 -13 19 19 47
30 27 31 30 10 24 -20 -6 -23 -4 -18 9 7 19 -4 21 -21 4 -9 -9 -12 -8 -12 5 0
9 -4 17 -10 17 -5 0 -10 -5 -10 -11 0 -5 -5 -7 -10 -4 -6 4 -8 10 -5 15 3 5
-3 13 -12 19 -16 9 -15 11 10 20 18 7 26 15 21 23 -6 9 -9 9 -12 0 -2 -7 -8
-12 -14 -12 -7 0 -9 19 -5 55 3 31 2 55 -4 55 -5 0 -9 -7 -9 -15 0 -8 -3 -14
-7 -14 -5 1 -16 1 -25 0 -16 -1 -16 -3 3 -22 20 -20 22 -38 8 -89 -5 -18 -19
-30 -36 -30 -8 0 -10 7 -6 18 11 30 -11 2 -24 -31 -12 -30 -13 -28 -7 26 4 43
2 57 -8 57 -8 0 -7 4 5 11 13 8 17 24 17 74 0 87 -20 84 -21 -2 -1 -38 -4 -58
-6 -45 -2 12 -10 22 -18 22 -8 0 -11 -7 -8 -21 3 -12 0 -25 -7 -29 -10 -6 -9
-13 4 -31 9 -13 16 -28 16 -34 0 -6 -4 -5 -8 2 -5 8 -19 9 -42 4 -24 -6 -30
-10 -20 -15 9 -4 17 -17 17 -29 2 -22 2 -22 -17 3 -11 14 -20 33 -20 43 0 9
-4 17 -10 17 -17 0 -11 -30 10 -57 19 -25 19 -43 -1 -43 -6 0 -7 5 -4 10 3 6
0 10 -7 10 -9 0 -9 3 2 10 13 8 12 10 -3 10 -10 0 -20 -6 -23 -14 -3 -8 -16
-17 -30 -20 -21 -6 -23 -9 -14 -26 9 -16 8 -20 -5 -20 -9 0 -13 5 -10 10 3 6
-4 10 -17 10 -13 0 -30 6 -37 13 -11 9 -13 9 -7 0 10 -18 -9 -16 -24 2 -16 19
-44 19 -60 1 -6 -8 -18 -12 -26 -9 -12 4 -12 8 3 20 17 14 17 14 1 9 -22 -7
-23 2 -2 25 14 15 13 17 -13 15 -15 -1 -34 -5 -42 -10 -9 -6 -12 -5 -8 1 4 6
0 13 -8 17 -8 3 -15 1 -15 -5 0 -6 -5 -7 -10 -4 -6 3 -8 17 -6 31 3 17 0 24
-10 24 -11 0 -13 6 -9 20 5 17 2 20 -22 20 -22 0 -25 2 -13 10 11 7 6 10 -22
10 -20 0 -44 -3 -52 -6 -15 -6 -15 -7 0 -18 14 -11 14 -13 -2 -27 -16 -12 -17
-12 -11 4 7 20 -18 25 -26 5 -4 -10 -6 -10 -6 0 -1 6 -12 12 -26 12 -31 0 -33
17 -2 23 l22 4 -22 2 c-15 1 -21 6 -17 15 3 9 13 12 27 8 19 -5 20 -3 10 10
-7 8 -10 18 -6 21 3 4 -5 8 -18 8 -18 1 -19 3 -6 6 28 7 14 28 -20 31 -27 3
-31 0 -26 -17 4 -16 1 -21 -13 -21 -15 0 -13 -5 10 -29 l27 -28 -25 4 c-21 4
-25 2 -20 -10 3 -9 12 -18 20 -21 18 -7 7 -36 -14 -36 -12 0 -13 -3 -4 -12 17
-17 15 -28 -4 -28 -11 0 -14 -6 -9 -21 6 -18 4 -20 -15 -14 -14 4 -20 3 -16
-3 3 -5 -5 -12 -19 -14 -19 -4 -23 -2 -15 7 11 13 -6 13 -48 0 -18 -6 -21 -10
-10 -17 10 -8 9 -9 -4 -4 -10 3 -20 1 -23 -4 -4 -6 -12 -10 -18 -10 -9 0 -8 3
1 8 17 11 4 45 -14 38 -19 -7 -17 1 5 23 11 11 22 17 25 13 3 -3 6 -1 6 5 0 6
10 14 23 18 20 7 18 8 -13 14 -34 6 -35 6 -15 23 11 10 29 24 39 31 21 16 14
37 -13 37 -19 0 -63 -29 -44 -30 17 0 4 -31 -22 -52 -24 -21 -42 -23 -26 -4
10 12 8 13 -10 9 -18 -5 -21 -3 -16 11 4 10 7 20 7 22 0 3 5 2 10 -1 6 -3 10
1 10 9 0 9 -4 16 -10 16 -5 0 -10 5 -10 11 0 5 5 7 12 3 7 -4 8 -3 4 4 -4 7
-14 12 -22 12 -21 0 -17 13 8 29 20 13 21 14 4 26 -16 12 -16 14 -1 23 16 8
16 9 0 16 -9 3 -22 3 -28 -1 -7 -4 -6 1 2 10 18 23 6 35 -19 19 -11 -7 -27
-12 -35 -12 -8 0 -15 -4 -15 -9 0 -5 -9 -7 -20 -4 -16 4 -19 2 -14 -11 4 -11
1 -16 -10 -16 -9 0 -16 -4 -16 -10 0 -5 -5 -10 -11 -10 -6 0 -8 7 -5 17 4 9 1
20 -6 24 -9 6 -9 11 2 24 12 14 12 18 -1 26 -12 7 -11 9 2 9 9 0 22 7 29 15 6
8 17 13 23 12 7 -1 10 5 8 13 -2 8 -4 22 -6 30 -1 8 -10 14 -19 12 -20 -4 -21
17 -1 24 9 4 13 15 11 27 -3 12 -5 25 -5 30 -1 4 -6 7 -13 7 -6 0 -9 -3 -5 -6
3 -3 1 -12 -6 -18 -8 -9 -26 -10 -60 -5 -57 9 -60 11 -51 32 8 22 42 31 60 16
8 -7 14 -8 13 -3 -5 29 3 44 24 44 16 0 18 -3 9 -9 -10 -6 -8 -10 10 -16 12
-4 26 -8 31 -10 19 -7 23 -7 31 -6 4 1 17 -8 27 -20 16 -19 21 -20 35 -8 15
12 14 15 -6 31 -12 10 -19 22 -16 27 10 16 -12 23 -36 10 -17 -9 -24 -9 -32 2
-6 8 -24 13 -41 12 -27 -1 -26 0 8 10 31 9 38 15 35 32 -4 21 16 49 37 51 5 0
15 2 21 2 11 2 15 32 4 32 -3 0 -15 7 -26 16 -10 8 -14 13 -7 10 15 -8 29 52
15 66 -6 6 -12 6 -16 0z m-716 -172 c0 -5 -2 -10 -4 -10 -3 0 -8 5 -11 10 -3
6 -1 10 4 10 6 0 11 -4 11 -10z m20 -51 c0 -6 -4 -7 -10 -4 -5 3 -10 11 -10
16 0 6 5 7 10 4 6 -3 10 -11 10 -16z m-284 -26 c-10 -10 -19 5 -10 18 6 11 8
11 12 0 2 -7 1 -15 -2 -18z m307 2 c-3 -9 -8 -14 -10 -11 -3 3 -2 9 2 15 9 16
15 13 8 -4z m336 -6 c-22 -14 -33 -10 -19 6 7 8 17 12 22 9 6 -4 5 -10 -3 -15z
m-1004 -9 c-4 -11 -2 -20 4 -20 6 0 11 -4 11 -10 0 -5 -6 -10 -14 -10 -8 0
-12 9 -11 23 4 34 5 37 11 37 3 0 2 -9 -1 -20z m948 -5 c-3 -9 -8 -14 -10 -11
-3 3 -2 9 2 15 9 16 15 13 8 -4z m234 -62 c-4 -3 -1 -13 6 -22 11 -14 10 -14
-5 -2 -21 15 -23 31 -6 31 6 0 8 -3 5 -7z m-927 -7 c0 -3 -4 -8 -10 -11 -5 -3
-10 -1 -10 4 0 6 5 11 10 11 6 0 10 -2 10 -4z m965 -6 c3 -5 1 -10 -4 -10 -6
0 -11 5 -11 10 0 6 2 10 4 10 3 0 8 -4 11 -10z m-538 -82 c-3 -8 -6 -5 -6 6
-1 11 2 17 5 13 3 -3 4 -12 1 -19z m367 -93 c-4 -8 -8 -15 -10 -15 -2 0 -4 7
-4 15 0 8 4 15 10 15 5 0 7 -7 4 -15z m320 -34 c4 -5 -4 -7 -16 -4 -23 5 -23
5 -3 -12 18 -15 18 -16 1 -11 -13 5 -17 2 -12 -9 3 -8 1 -15 -4 -15 -6 0 -13
0 -17 0 -5 0 -9 9 -9 20 -2 29 46 54 60 31z m-30 -76 c-4 -8 -10 -12 -15 -9
-11 6 -2 24 11 24 5 0 7 -7 4 -15z m-14 -36 c0 -6 -4 -7 -10 -4 -5 3 -10 11
-10 16 0 6 5 7 10 4 6 -3 10 -11 10 -16z m427 -35 c-3 -3 -12 -4 -19 -1 -8 3
-5 6 6 6 11 1 17 -2 13 -5z m645 -86 c-7 -7 -12 -8 -12 -2 0 14 12 26 19 19 2
-3 -1 -11 -7 -17z m513 12 c-3 -5 -11 -10 -16 -10 -6 0 -7 5 -4 10 3 6 11 10
16 10 6 0 7 -4 4 -10z m-345 -20 c0 -5 -2 -10 -4 -10 -3 0 -8 5 -11 10 -3 6
-1 10 4 10 6 0 11 -4 11 -10z m-172 -30 c10 -17 10 -20 -5 -20 -9 0 -13 3 -10
7 4 3 2 12 -4 20 -6 7 -7 13 -3 13 5 0 15 -9 22 -20z m662 -4 c0 -3 -4 -8 -10
-11 -5 -3 -10 -1 -10 4 0 6 5 11 10 11 6 0 10 -2 10 -4z m-765 -16 c-3 -5 -12
-10 -18 -10 -7 0 -6 4 3 10 19 12 23 12 15 0z m35 6 c0 -2 -8 -10 -17 -17 -16
-13 -17 -12 -4 4 13 16 21 21 21 13z m672 -24 c-7 -2 -9 -9 -6 -14 4 -7 2 -8
-4 -4 -19 12 -15 36 5 29 11 -4 13 -8 5 -11z m-707 -22 c3 -6 -1 -7 -9 -4 -18
7 -21 14 -7 14 6 0 13 -4 16 -10z m525 0 c0 -5 -7 -10 -16 -10 -8 0 -12 5 -9
10 3 6 10 10 16 10 5 0 9 -4 9 -10z m-190 -14 c0 -2 -7 -7 -16 -10 -8 -3 -12
-2 -9 4 6 10 25 14 25 6z m-348 -13 c-6 -2 -10 -9 -7 -14 4 -5 -1 -6 -9 -3
-20 8 -11 24 12 23 11 0 12 -2 4 -6z"/>
<path d="M108 803 c7 -3 16 -2 19 1 4 3 -2 6 -13 5 -11 0 -14 -3 -6 -6z"/>
<path d="M2610 350 c0 -5 5 -10 10 -10 6 0 10 5 10 10 0 6 -4 10 -10 10 -5 0
-10 -4 -10 -10z"/>
<path d="M2393 323 c-15 -5 -18 -53 -4 -53 5 0 11 14 13 30 3 17 4 30 4 29 -1
0 -7 -3 -13 -6z"/>
<path d="M2639 301 c12 -16 21 -34 21 -40 0 -6 5 -11 10 -11 6 0 10 9 10 20 0
12 -7 20 -17 20 -9 0 -13 3 -10 7 8 7 -11 33 -25 33 -5 0 0 -13 11 -29z"/>
<path d="M2330 305 c0 -8 5 -15 10 -15 6 0 10 7 10 15 0 8 -4 15 -10 15 -5 0
-10 -7 -10 -15z"/>
<path d="M1540 230 c0 -5 5 -10 11 -10 5 0 7 -5 3 -12 -4 -7 -3 -8 5 -4 9 6 9
11 0 22 -14 17 -19 18 -19 4z"/>
<path d="M2200 231 c0 -5 7 -11 14 -14 10 -4 13 -1 9 9 -6 15 -23 19 -23 5z"/>
<path d="M2235 180 c3 -5 11 -10 16 -10 6 0 7 5 4 10 -3 6 -11 10 -16 10 -6 0
-7 -4 -4 -10z"/>
<path d="M4135 168 c-9 -19 -5 -28 21 -55 37 -40 50 -41 57 -8 4 25 4 25 -14
9 -23 -21 -24 -14 -4 33 19 45 19 43 -6 43 -16 0 -20 -5 -16 -20 3 -11 1 -18
-4 -14 -5 3 -9 12 -9 20 0 21 -14 17 -25 -8z"/>
<path d="M4230 95 c-10 -12 -10 -15 4 -15 9 0 16 7 16 15 0 8 -2 15 -4 15 -2
0 -9 -7 -16 -15z"/>
</g>
</svg>
